<svg xmlns="http://www.w3.org/2000/svg" xmlns:xlink="http://www.w3.org/1999/xlink" style="position: absolute; width: 0; height: 0" aria-hidden="true" id="__SVG_SPRITE_NODE__"><symbol xmlns="http://www.w3.org/2000/svg" viewBox="0 0 24 15" id="arrow_expand"><path d="M21.17.17L12 9.34 2.83.17 0 3l12 12L24 3 21.17.17z"></path></symbol><symbol xmlns="http://www.w3.org/2000/svg" viewBox="0 0 32 32" id="arrow_up"><path d="M0 16l2.83 2.83L14 7.66V32h4V7.66l11.17 11.17L32 16 16 0 0 16z"></path></symbol><symbol xmlns="http://www.w3.org/2000/svg" viewBox="0 0 36 40" id="calendar"><path d="M28 18H8v4h20v-4zm4-14h-2V0h-4v4H10V0H6v4H4C1.79 4 .02 5.79.02 8L0 36c0 2.21 1.79 4 4 4h28c2.21 0 4-1.79 4-4V8c0-2.21-1.79-4-4-4zm0 32H4V14h28v22zM22 26H8v4h14v-4z"></path></symbol><symbol xmlns="http://www.w3.org/2000/svg" viewBox="0 0 28 28" id="close_x"><path d="M28 2.83L25.17 0 14 11.17 2.83 0 0 2.83 11.17 14 0 25.17 2.83 28 14 16.83 25.17 28 28 25.17 16.83 14 28 2.83z"></path></symbol><symbol xmlns="http://www.w3.org/2000/svg" viewBox="0 0 28 36" id="delete_forever"><path d="M2 32c0 2.2 1.8 4 4 4h16c2.2 0 4-1.8 4-4V8H2v24zm4.93-14.24l2.83-2.83L14 19.17l4.24-4.24 2.83 2.83L16.83 22l4.24 4.24-2.83 2.83L14 24.83l-4.24 4.24-2.83-2.83L11.17 22l-4.24-4.24zM21 2l-2-2H9L7 2H0v4h28V2h-7z"></path></symbol><symbol xmlns="http://www.w3.org/2000/svg" viewBox="0 0 48 27" id="done_all"><path d="M36 3L33.17.17 20.49 12.86l2.83 2.83L36 3zM44.49.17L23.31 21.34 14.97 13l-2.83 2.83L23.31 27l24-24L44.49.17zM.83 15.83L12 27l2.83-2.83L3.66 13 .83 15.83z"></path></symbol><symbol xmlns="http://www.w3.org/2000/svg" viewBox="0 0 36 36" id="edit"><path d="M0 28.5V36h7.5l22.13-22.13-7.5-7.5L0 28.5zM35.41 8.09c.78-.78.78-2.05 0-2.83L30.74.59c-.78-.78-2.05-.78-2.83 0l-3.66 3.66 7.5 7.5 3.66-3.66z"></path></symbol><symbol xmlns="http://www.w3.org/2000/svg" viewBox="0 0 28 28" id="plus_simple"><path d="M28 16H16v12h-4V16H0v-4h12V0h4v12h12v4z"></path></symbol><symbol xmlns="http://www.w3.org/2000/svg" viewBox="0 0 40 40" id="radio_button_unchecked"><path d="M20 0C8.95 0 0 8.95 0 20s8.95 20 20 20 20-8.95 20-20S31.05 0 20 0zm0 36c-8.84 0-16-7.16-16-16S11.16 4 20 4s16 7.16 16 16-7.16 16-16 16z"></path></symbol><symbol xmlns="http://www.w3.org/2000/svg" viewBox="0 0 40 40" id="radio_button_checked"><path d="M20 10c-5.52 0-10 4.48-10 10s4.48 10 10 10 10-4.48 10-10-4.48-10-10-10zm0-10C8.95 0 0 8.95 0 20s8.95 20 20 20 20-8.95 20-20S31.05 0 20 0zm0 36c-8.84 0-16-7.16-16-16S11.16 4 20 4s16 7.16 16 16-7.16 16-16 16z"></path></symbol><symbol xmlns="http://www.w3.org/2000/svg" viewBox="0 0 32 28" id="subject_description"><path d="M20 24H0v4h20v-4zM32 8H0v4h32V8zM0 20h32v-4H0v4zM0 0v4h32V0H0z"></path></symbol><symbol xmlns="http://www.w3.org/2000/svg" viewBox="0 0 38 36" id="task_name"><path d="M0 36h38v-6H0v6zm36-26H2c-1.1 0-2 .9-2 2v12c0 1.1.9 2 2 2h34c1.1 0 2-.9 2-2V12c0-1.1-.9-2-2-2zM0 0v6h38V0H0z"></path></symbol><symbol xmlns="http://www.w3.org/2000/svg" viewBox="0 0 36 27" id="checklist_done"><path d="M12 21.34L3.66 13 .83 15.83 12 27 36 3 33.17.17 12 21.34z"></path></symbol></svg>